<svg width="64" height="64" viewBox="0 0 64 64" fill="none" xmlns="http://www.w3.org/2000/svg">
<path d="M26.8124 2.90503L26.6874 3.91753C24.9374 11.605 29.3124 15 29.3124 15L30.6874 13.375C30.6874 13.375 27.6874 10.905 28.4374 5.43003C33.5624 6.88003 35.6874 10.005 36.4374 11.53C30.9374 13.5 29.4374 18.6875 26.4374 22.525L29.0624 22.0375L28.8124 25.95C28.8124 25.95 34.3124 24.8625 37.4374 28.1625C38.0624 27.0875 38.4374 25.8 38.1874 24.5125L37.8124 20.9875C37.4374 20.85 36.9374 20.6125 36.4374 20.3125C34.9374 19.4 33.3124 17.925 33.3124 17.925C33.0624 17.6875 33.0624 17.275 33.1874 16.95C33.4374 16.6375 33.8124 16.4875 34.0624 16.6125C34.0624 16.6125 35.4374 17.05 36.6874 17.45C38.0624 17.9375 39.1874 19.2375 39.3124 20.775C39.4374 21.825 39.6874 23.1375 39.8124 24.3125C40.0624 26.2375 39.4374 28.1625 38.3124 29.65L39.1874 31.9375H43.9374L44.8124 29.65C43.6874 28.1625 43.0624 26.2375 43.3124 24.3125C43.4374 23.1375 43.6874 21.825 43.8124 20.775C43.9374 19.2375 45.0624 17.9375 46.4374 17.45C47.6874 17.05 49.0624 16.6125 49.0624 16.6125C49.3124 16.4875 49.6874 16.6375 49.9374 16.95C50.0624 17.275 50.0624 17.6875 49.8124 17.925C49.8124 17.925 48.1874 19.4 46.6874 20.3125C46.1874 20.6125 45.6874 20.85 45.3124 20.9875L44.9374 24.5125C44.6874 25.8 45.0624 27.0875 45.6874 28.1625C48.8124 24.8625 54.3124 25.95 54.3124 25.95L54.0624 22.0375L56.6874 22.525C53.6874 18.6875 52.1874 13.5 46.6874 11.53C47.4374 10.005 49.5624 6.88003 54.6874 5.43003C55.4374 10.905 52.4374 13.375 52.4374 13.375L53.8124 15C53.8124 15 58.1874 11.605 56.4374 3.91753L56.3124 2.90503C50.8999 3.82003 45.5749 7.32628 42.5624 10.7675C41.8749 10.7513 41.2499 10.7025 40.5624 10.7675C35.2124 6.42378 32.8999 3.75253 26.8124 2.90503ZM29.8999 28.5625C34.6749 35.2125 18.9374 34.3875 10.6986 43.5C7.43488 47 6.63238 50.5375 7.45488 53.5375C8.98363 59.0375 16.4374 62.6625 25.4624 60.4125C31.6874 58.7875 37.4624 56.4125 42.3124 55.4125C46.6999 54.4125 50.2874 54.7875 52.5999 58.4125L54.5124 57.7875C54.1499 53.0375 52.7124 49.1875 49.9499 46.85C47.8499 45.075 44.9624 44.1 41.0874 44.2125C37.4249 44.3125 32.8499 45.375 27.1874 47.625C23.8124 48.8125 17.6249 51.0875 14.3874 49.2C13.2499 48.5 12.8999 47.325 12.9874 46.1625C17.2874 52.6625 28.4999 42.7875 37.7999 41.7C37.7999 41.7 38.6249 30.6625 29.8999 28.5625ZM53.4749 28.5625C46.8374 30.1125 45.4624 35.325 45.3249 41.7C48.6374 41.675 51.5624 44.6625 51.5624 44.6625C51.5624 44.6625 48.1874 32.3375 53.4749 28.5625ZM40.9374 28.725H42.1874C42.5624 28.725 42.9374 29.075 42.9374 29.5125C42.9374 29.9375 42.5624 30.2875 42.1874 30.2875H40.9374C40.5624 30.2875 40.1874 29.9375 40.1874 29.5125C40.1874 29.075 40.5624 28.725 40.9374 28.725ZM48.6124 48.4375C50.3249 49.8875 51.3874 52.0375 51.9624 54.6625C49.9874 53.1625 47.5874 52.6625 44.8249 52.9125C41.8124 53.1625 38.3374 54.1625 34.5374 55.4125L37.7999 52.2875C34.2624 54.0375 31.1624 54.4125 28.3749 53.7875L38.4874 48.7625L30.8374 50.1625C33.8124 47.6375 42.7374 43.6375 48.6124 48.4375Z" fill="black"/>
</svg>
